<?xml version="1.0" standalone="no"?>
<!DOCTYPE svg PUBLIC "-//W3C//DTD SVG 20010904//EN"
 "http://www.w3.org/TR/2001/REC-SVG-20010904/DTD/svg10.dtd">
<svg version="1.0" xmlns="http://www.w3.org/2000/svg"
 width="300.000000pt" height="300.000000pt" viewBox="0 0 300.000000 300.000000"
 preserveAspectRatio="xMidYMid meet">
<metadata>
Created by potrace 1.10, written by Peter Selinger 2001-2011
</metadata>
<g transform="translate(0.000000,300.000000) scale(0.100000,-0.100000)"
fill="#000000" stroke="none">
<path d="M1290 2560 c-67 -10 -163 -45 -205 -73 -118 -80 -179 -157 -219 -274
-66 -191 12 -412 191 -544 55 -41 299 -163 446 -223 298 -122 439 -253 438
-407 0 -75 -26 -133 -81 -182 -54 -50 -97 -67 -181 -74 -51 -4 -69 -10 -72
-22 -4 -13 -6 -12 -12 5 -5 16 -18 24 -47 28 -64 10 -137 45 -214 102 -85 63
-127 113 -184 219 -24 44 -45 82 -46 84 -7 8 -293 -203 -287 -212 3 -5 2 -7
-4 -4 -6 4 -21 1 -35 -5 l-24 -12 63 -92 c35 -51 63 -95 63 -98 0 -3 27 -48
60 -100 33 -53 60 -98 60 -102 0 -4 -13 -4 -29 -1 -36 8 -54 -9 -40 -37 6 -13
2 -11 -11 7 -12 15 -26 24 -32 21 -6 -4 -6 -9 3 -14 9 -6 9 -12 -4 -24 -21
-21 -25 -20 -30 6 -4 21 -4 21 -6 -3 0 -14 5 -33 12 -43 12 -17 15 -17 52 5
77 44 156 112 161 139 6 27 44 38 44 13 0 -7 24 -27 53 -44 28 -17 66 -39 84
-50 45 -28 226 -89 284 -96 55 -7 66 -28 20 -38 -22 -5 -28 -10 -24 -23 4 -10
8 -12 11 -4 2 7 10 12 18 12 9 0 13 -5 9 -12 -4 -7 0 -6 7 4 10 12 19 14 33 6
19 -9 19 -8 3 5 -33 27 -21 37 45 36 41 0 55 -3 42 -8 -11 -5 -24 -7 -30 -6
-5 1 -7 0 -2 -2 4 -3 4 -9 1 -15 -4 -7 0 -7 12 0 11 6 21 10 24 10 3 1 12 3
20 5 8 2 58 15 110 27 123 29 175 50 241 97 67 46 151 138 180 194 118 232
101 465 -49 668 -102 138 -226 218 -557 359 -298 126 -417 222 -385 308 10 26
12 26 88 22 85 -5 174 -37 251 -91 33 -22 43 -26 38 -13 -5 12 -3 16 5 13 7
-2 12 -9 11 -15 -2 -6 14 -28 35 -49 20 -21 49 -53 65 -71 15 -19 27 -28 27
-22 0 6 -22 35 -50 64 l-50 53 30 21 c26 20 30 20 38 6 5 -9 12 -12 15 -7 4 6
-4 16 -18 23 -13 7 -21 18 -18 26 3 8 0 14 -7 14 -8 0 -10 -9 -6 -24 3 -14 2
-28 -4 -31 -6 -4 -10 5 -10 20 0 15 -4 24 -10 20 -5 -3 -10 -1 -10 4 0 6 6 11
13 11 7 0 13 9 14 20 2 18 0 19 -13 5 -9 -8 -20 -15 -25 -15 -6 0 -7 -4 -4
-10 8 -14 -8 -13 -22 1 -9 9 -11 6 -7 -12 2 -13 2 -18 -2 -11 -3 6 -10 10 -15
6 -5 -3 -9 0 -9 6 0 6 -4 9 -10 5 -5 -3 -29 7 -52 21 -26 17 -55 27 -73 26
l-30 -3 23 16 c12 9 22 22 22 28 0 7 -4 6 -10 -3 -9 -14 -14 -7 -11 13 1 5 -3
6 -9 2 -8 -5 -8 -11 0 -20 8 -10 6 -15 -10 -20 -23 -7 -44 5 -22 12 6 3 12 12
12 21 -1 16 -2 16 -14 0 -9 -13 -26 -17 -67 -15 -30 1 -62 -2 -72 -7 -35 -16
13 61 55 89 65 43 180 30 308 -35 80 -41 209 -165 275 -266 31 -47 55 -87 53
-88 -2 -1 -29 -15 -62 -30 l-58 -29 -24 29 c-13 16 -21 35 -19 42 5 14 -21 17
-29 3 -4 -7 31 -61 71 -111 2 -2 7 0 11 6 4 6 32 26 62 45 30 18 60 40 67 49
6 8 15 11 20 6 4 -5 2 -11 -4 -13 -7 -3 -13 -9 -13 -15 0 -6 9 -3 20 7 12 11
16 21 11 25 -6 3 19 27 55 53 36 26 70 44 76 41 7 -4 8 -2 4 4 -4 6 5 18 21
26 15 8 45 30 66 48 l38 33 -17 50 c-9 28 -18 52 -20 53 -2 3 -75 -43 -102
-64 -2 -1 1 -11 7 -21 6 -10 11 -13 11 -7 0 5 7 19 16 30 8 10 13 14 10 9 -2
-6 4 -11 14 -11 10 0 17 3 14 7 -2 4 3 12 11 19 12 10 15 9 15 -4 0 -9 5 -16
11 -16 5 0 7 -5 4 -10 -4 -6 -11 -8 -16 -5 -5 4 -9 1 -9 -4 0 -6 8 -11 18 -12
14 0 13 -3 -5 -16 -13 -8 -23 -22 -23 -30 0 -8 -4 -12 -9 -8 -5 3 -12 1 -16
-4 -3 -6 -11 -8 -18 -5 -8 3 -28 -9 -45 -26 -18 -16 -37 -30 -42 -30 -6 0 -8
-4 -5 -10 3 -5 -1 -10 -9 -10 -8 0 -19 -6 -23 -12 -4 -7 -22 -21 -40 -31 -31
-17 -32 -17 -42 2 -6 11 -17 25 -23 33 -22 23 -48 75 -48 96 0 13 -11 24 -32
33 -18 7 -46 27 -63 45 -35 37 -156 122 -200 139 -16 7 -51 16 -77 19 -26 4
-50 12 -54 18 -6 10 3 8 56 -10 13 -4 13 -2 -1 12 -12 13 -34 17 -99 17 l-84
1 -43 -49 c-23 -26 -40 -54 -38 -61 3 -7 1 -11 -4 -8 -11 7 -41 -71 -41 -107
0 -16 6 -40 14 -55 32 -60 176 -170 261 -198 28 -9 55 -20 60 -24 6 -4 66 -31
135 -60 194 -82 329 -158 381 -215 13 -15 47 -50 75 -79 94 -97 150 -257 141
-406 -5 -92 -21 -149 -70 -248 -33 -69 -115 -156 -172 -182 -19 -9 -45 -25
-57 -36 -20 -17 -91 -49 -138 -62 -28 -8 -325 -10 -335 -2 -5 4 -23 10 -40 14
-57 13 -140 39 -150 48 -5 4 -14 8 -21 8 -20 0 -148 77 -174 105 -35 37 -65
33 -96 -15 -15 -22 -29 -40 -33 -40 -3 1 -31 42 -61 92 -30 50 -79 128 -108
174 -52 80 -53 83 -35 101 10 10 31 24 46 32 15 8 27 18 27 23 0 4 7 8 16 8 8
0 12 5 9 10 -3 6 0 10 8 10 13 0 50 25 120 82 15 13 33 23 40 23 7 0 30 -32
53 -72 57 -101 86 -136 162 -197 75 -59 143 -97 212 -117 25 -7 53 -19 62 -27
12 -10 26 -12 45 -7 15 4 53 6 83 6 49 -2 59 1 79 25 16 18 29 24 43 20 26 -6
53 8 84 43 30 33 39 59 55 148 10 58 10 82 0 115 -14 51 -43 108 -53 108 -5 0
-8 5 -8 12 0 18 -106 116 -165 153 -61 38 -222 114 -256 120 -28 5 -372 176
-377 187 -2 5 -10 8 -17 8 -7 0 -26 13 -41 29 -15 17 -32 27 -38 24 -6 -4 -7
1 -2 13 4 10 4 15 1 12 -7 -6 -48 38 -72 77 -60 97 -78 183 -58 275 l14 65 -4
-53 c-5 -58 10 -63 21 -6 5 26 2 40 -11 54 -14 15 -15 23 -6 34 6 8 11 18 10
22 -1 5 5 24 12 42 11 27 18 32 36 27 12 -3 24 -1 27 4 3 5 -2 8 -11 7 -9 0
-18 5 -20 12 -3 8 1 10 13 5 12 -4 15 -3 10 6 -11 17 84 103 154 140 98 52
148 61 320 58 100 -2 162 -8 175 -16 18 -11 18 -11 -5 -5 -14 4 -31 9 -39 12
-9 3 -12 1 -7 -6 4 -6 39 -21 79 -33 40 -12 91 -32 115 -46 23 -14 42 -22 42
-17 0 4 8 0 18 -9 9 -8 39 -27 66 -41 l49 -26 43 45 c50 52 67 56 83 17 15
-35 12 -51 -14 -74 -11 -9 -16 -17 -11 -18 5 0 3 -7 -4 -15 -6 -8 -9 -19 -6
-24 11 -17 50 -3 75 26 23 26 24 26 19 6 -4 -14 -2 -23 5 -23 6 0 0 -8 -13
-17 -30 -20 -40 -34 -33 -45 2 -5 -1 -16 -9 -25 -9 -12 -9 -15 0 -9 13 8 15 0
14 -46 0 -16 5 -28 12 -28 17 0 56 -55 56 -80 0 -13 4 -19 11 -14 8 4 9 -1 4
-15 -6 -20 -5 -21 14 -9 11 7 17 15 13 18 -12 7 -42 53 -42 62 0 4 25 24 55
44 30 20 55 38 55 40 0 1 -6 9 -13 16 -8 7 -26 32 -41 56 -24 38 -28 41 -46
30 -11 -7 -20 -16 -20 -21 0 -4 -4 -6 -9 -2 -5 3 -12 1 -15 -4 -11 -16 11 -22
24 -6 11 13 16 13 40 -2 25 -15 27 -19 17 -42 -15 -35 -25 -40 -56 -32 -19 6
-27 15 -29 37 -2 16 -9 32 -14 35 -6 4 8 17 31 30 22 13 41 26 41 29 -1 3 -11
18 -23 33 l-23 28 -42 -31 c-54 -39 -66 -39 -24 0 18 17 37 30 42 30 22 0 17
22 -15 70 -19 29 -35 58 -35 64 0 19 -9 24 -30 19 -20 -5 -50 -54 -50 -80 0
-7 -7 -13 -16 -13 -8 0 -13 -4 -9 -9 15 -25 -19 -16 -91 26 -101 58 -213 109
-278 128 -65 18 -214 26 -286 15z m97 -16 c-3 -3 -12 -4 -19 -1 -8 3 -5 6 6 6
11 1 17 -2 13 -5z m638 -83 c-3 -6 -16 -16 -28 -22 -21 -11 -21 -10 2 15 23
25 40 29 26 7z m-556 -205 c-2 -2 -20 -6 -39 -9 -19 -3 -46 -8 -60 -12 -21 -4
-21 -3 5 9 26 13 106 23 94 12z m671 -137 c9 -8 14 -21 12 -27 -6 -18 -19 -14
-25 8 -3 11 -11 20 -19 20 -8 0 -14 9 -15 21 -2 18 0 19 15 7 9 -7 23 -20 32
-29z m-453 -104 c16 -16 10 -51 -6 -40 -6 3 -8 12 -4 20 3 8 0 15 -6 15 -6 0
-11 5 -11 10 0 14 9 12 27 -5z m217 -21 c7 -19 2 -18 -19 6 -16 17 -16 20 -3
15 9 -4 19 -13 22 -21z m241 -514 c10 -11 14 -20 9 -20 -5 0 -15 9 -22 20 -7
11 -11 20 -9 20 2 0 12 -9 22 -20z m-215 -579 c0 -14 -81 -101 -94 -101 -7 0
11 24 38 54 56 60 56 60 56 47z m-177 -138 c-7 -2 -21 -2 -30 0 -10 3 -4 5 12
5 17 0 24 -2 18 -5z m-788 -202 c3 -5 1 -12 -5 -16 -5 -3 -10 1 -10 9 0 18 6
21 15 7z m1125 5 c0 -8 -71 -48 -76 -43 -3 2 10 14 28 25 33 20 48 26 48 18z"/>
<path d="M1410 2468 c-30 -4 -81 -10 -112 -14 -63 -7 -99 -32 -75 -52 9 -8 24
-7 52 3 55 19 103 18 220 -4 101 -20 199 -54 262 -91 29 -17 35 -18 39 -5 11
27 -3 41 -83 82 -121 63 -226 91 -303 81z m140 -39 c80 -22 240 -94 240 -108
0 -5 -29 7 -64 25 -136 72 -274 102 -393 85 -38 -5 -77 -12 -88 -17 -14 -5
-17 -4 -10 4 31 33 212 40 315 11z"/>
<path d="M1932 2445 c-20 -19 -32 -35 -26 -35 5 0 25 16 44 35 44 45 31 45
-18 0z"/>
<path d="M1130 2375 c-7 -8 -8 -15 -2 -15 5 0 15 7 22 15 7 8 8 15 2 15 -5 0
-15 -7 -22 -15z"/>
<path d="M1136 2352 c-38 -29 -106 -124 -106 -150 0 -7 -7 -36 -16 -63 -15
-45 -15 -52 -2 -65 21 -21 37 0 41 54 4 41 39 112 55 112 8 0 42 44 75 98 19
29 -32 -8 -54 -40 -13 -18 -27 -35 -31 -36 -5 -2 -18 -22 -29 -44 -11 -22 -23
-38 -25 -35 -11 11 31 74 84 129 62 64 66 83 8 40z m-100 -238 c-4 -20 -10
-34 -13 -30 -3 3 -2 21 1 42 4 20 10 34 13 30 3 -3 2 -21 -1 -42z"/>
<path d="M1490 2332 c0 -4 27 -14 60 -21 33 -8 63 -18 67 -24 4 -7 -1 -8 -13
-3 -40 15 -134 34 -134 26 0 -8 26 -18 75 -26 17 -4 37 -10 46 -15 20 -10 42
10 31 29 -15 24 -132 54 -132 34z"/>
<path d="M836 2280 c-94 -89 -133 -193 -123 -329 7 -97 29 -159 84 -243 54
-82 135 -157 217 -199 141 -73 216 -109 223 -108 19 3 34 -2 29 -10 -6 -10
132 -73 144 -66 5 3 11 0 13 -5 4 -7 5 -6 3 0 -1 7 -5 10 -9 8 -10 -4 -31 31
-23 39 3 3 12 1 19 -5 10 -9 14 -8 14 3 0 8 -9 15 -19 15 -18 0 -24 11 -12 23
7 6 45 -12 56 -28 4 -5 8 0 8 13 0 12 5 22 11 22 6 0 3 7 -5 16 -9 8 -20 13
-25 9 -6 -3 -14 1 -18 10 -8 13 -11 13 -23 -3 -8 -9 -15 -24 -15 -32 0 -8 -5
-14 -11 -13 -6 1 -11 -4 -11 -12 0 -8 4 -12 9 -9 4 3 8 0 8 -5 0 -6 -7 -11
-15 -11 -8 0 -15 4 -15 10 0 5 -7 7 -15 4 -8 -4 -15 -1 -15 5 0 6 5 11 11 11
5 0 7 5 4 11 -5 6 -12 4 -20 -7 -12 -17 -14 -17 -29 -1 -10 9 -22 17 -27 17
-5 0 -9 8 -10 18 0 16 -1 16 -7 -1 -7 -15 -20 -11 -123 41 -70 34 -114 62
-111 70 2 6 -8 16 -22 22 -14 5 -26 13 -26 18 0 4 -10 8 -22 9 -28 2 -55 43
-28 43 6 0 10 -5 10 -12 0 -6 3 -9 6 -5 4 3 -4 19 -16 34 -20 25 -22 25 -16 6
4 -13 4 -23 -1 -23 -13 0 -67 61 -89 100 -10 19 -23 38 -27 41 -4 3 -3 18 3
33 13 36 13 41 -5 26 -12 -10 -15 -7 -22 17 -16 59 -6 203 15 203 6 0 12 5 12
11 0 5 4 7 10 4 6 -4 7 1 3 11 -4 12 -3 15 5 10 7 -4 12 -2 12 3 0 6 -9 11
-20 11 -20 0 -38 -29 -47 -75 -5 -26 -23 -44 -23 -23 0 9 4 19 9 22 5 3 7 15
4 26 -3 12 0 20 6 20 7 0 10 4 6 10 -3 5 -1 17 4 27 5 10 15 34 22 53 7 19 34
58 59 85 90 98 93 117 6 35z m607 -856 c4 -1 10 -2 15 -3 4 -1 -1 -6 -11 -12
-13 -8 -22 -7 -32 1 -17 14 -9 34 8 23 7 -4 15 -8 20 -9z"/>
<path d="M1295 2305 c-17 -7 -39 -22 -49 -34 -15 -17 -16 -23 -6 -36 11 -13
16 -12 43 11 17 14 42 30 55 35 14 5 22 12 19 15 -8 8 -70 -21 -86 -39 -7 -10
-18 -17 -24 -17 -17 0 31 41 72 61 41 21 22 24 -24 4z"/>
<path d="M1733 2233 c0 -24 15 -42 51 -59 30 -14 29 -13 -8 21 -46 41 -40 47
10 9 43 -33 44 -24 2 15 -37 35 -55 39 -55 14z"/>
<path d="M1503 2166 c1 -11 9 -21 17 -23 10 -3 11 -2 4 4 -6 4 -14 15 -17 23
-5 11 -6 9 -4 -4z"/>
<path d="M1547 2163 c-3 -5 -1 -15 5 -23 8 -12 9 -12 4 3 -6 18 18 25 27 7 3
-6 4 -5 3 2 -3 15 -32 23 -39 11z"/>
<path d="M815 2150 c-3 -5 -1 -10 4 -10 6 0 11 5 11 10 0 6 -2 10 -4 10 -3 0
-8 -4 -11 -10z"/>
<path d="M1981 2151 c-15 -10 -18 -60 -4 -70 5 -3 24 -35 42 -71 18 -36 39
-71 47 -79 11 -12 15 -10 24 14 9 24 6 39 -16 91 -33 78 -73 128 -93 115z m60
-105 c23 -47 39 -89 38 -94 -2 -4 -25 34 -50 85 -25 51 -42 93 -37 93 5 0 27
-38 49 -84z"/>
<path d="M1147 2094 c-12 -12 -8 -49 7 -69 13 -18 14 -18 25 4 7 12 11 32 9
44 -3 22 -28 34 -41 21z m20 -56 c-2 -13 -4 -5 -4 17 -1 22 1 32 4 23 2 -10 2
-28 0 -40z"/>
<path d="M1730 2090 c0 -5 5 -10 11 -10 5 0 7 5 4 10 -3 6 -8 10 -11 10 -2 0
-4 -4 -4 -10z"/>
<path d="M1590 2059 c0 -5 5 -7 10 -4 6 3 10 8 10 11 0 2 -4 4 -10 4 -5 0 -10
-5 -10 -11z"/>
<path d="M1743 2063 c9 -2 15 -9 12 -14 -9 -14 1 -11 13 4 8 10 5 13 -16 14
-15 0 -19 -1 -9 -4z"/>
<path d="M1777 2023 c3 -7 6 -13 8 -13 2 0 5 6 8 13 3 8 -1 14 -8 14 -7 0 -11
-6 -8 -14z"/>
<path d="M2210 2025 c7 -9 15 -13 17 -11 7 7 -7 26 -19 26 -6 0 -6 -6 2 -15z"/>
<path d="M1060 1902 c0 -7 -4 -11 -10 -7 -5 3 -5 -7 1 -25 6 -16 18 -30 26
-30 12 0 12 2 -1 16 -9 8 -16 21 -16 27 0 7 7 3 15 -7 8 -11 15 -15 15 -10 0
16 -29 51 -30 36z"/>
<path d="M1886 1894 c-9 -23 -7 -36 3 -30 12 8 21 46 11 46 -4 0 -11 -7 -14
-16z"/>
<path d="M819 1890 c-1 -8 -1 -18 0 -22 0 -5 -4 -8 -11 -8 -6 0 -9 -3 -6 -6 4
-3 3 -18 -2 -33 -5 -20 -4 -28 5 -28 7 0 10 8 7 19 -2 10 1 18 7 18 7 0 9 5 6
10 -4 6 -1 18 6 26 9 11 9 18 1 26 -9 9 -12 8 -13 -2z"/>
<path d="M850 1880 c0 -5 5 -10 11 -10 5 0 7 5 4 10 -3 6 -8 10 -11 10 -2 0
-4 -4 -4 -10z"/>
<path d="M1849 1873 c0 -5 -2 -20 -4 -35 -3 -22 -1 -25 9 -16 7 7 10 22 8 35
-4 22 -11 31 -13 16z"/>
<path d="M830 1851 c0 -6 5 -13 10 -16 6 -3 10 1 10 9 0 9 -4 16 -10 16 -5 0
-10 -4 -10 -9z"/>
<path d="M2069 1843 c-13 -16 -12 -17 4 -4 9 7 17 15 17 17 0 8 -8 3 -21 -13z"/>
<path d="M2149 1773 c-13 -16 -12 -17 4 -4 9 7 17 15 17 17 0 8 -8 3 -21 -13z"/>
<path d="M2099 1733 c-13 -16 -12 -17 4 -4 16 13 21 21 13 21 -2 0 -10 -8 -17
-17z"/>
<path d="M933 1725 c0 -7 6 -11 14 -8 7 3 13 6 13 8 0 2 -6 5 -13 8 -8 3 -14
-1 -14 -8z"/>
<path d="M896 1708 c3 -5 10 -6 15 -3 13 9 11 12 -6 12 -8 0 -12 -4 -9 -9z"/>
<path d="M946 1701 c-4 -6 -2 -11 4 -11 6 0 8 -6 4 -12 -6 -10 -4 -10 7 0 9 9
10 15 2 23 -8 8 -13 8 -17 0z"/>
<path d="M870 1679 c0 -5 5 -7 10 -4 6 3 10 8 10 11 0 2 -4 4 -10 4 -5 0 -10
-5 -10 -11z"/>
<path d="M930 1650 c0 -5 5 -10 11 -10 5 0 7 5 4 10 -3 6 -8 10 -11 10 -2 0
-4 -4 -4 -10z"/>
<path d="M1644 1639 c-17 -19 -17 -20 2 -40 19 -19 61 -18 49 1 -3 5 -1 11 5
15 13 8 5 22 -19 35 -14 7 -23 5 -37 -11z m36 -19 c0 -5 -4 -10 -10 -10 -5 0
-10 5 -10 10 0 6 5 10 10 10 6 0 10 -4 10 -10z"/>
<path d="M1020 1626 c0 -2 7 -6 15 -10 8 -3 15 -1 15 4 0 6 -7 10 -15 10 -8 0
-15 -2 -15 -4z"/>
<path d="M1065 1600 c-3 -6 1 -7 9 -4 18 7 21 14 7 14 -6 0 -13 -4 -16 -10z"/>
<path d="M974 1588 c-4 -7 -2 -8 5 -4 6 4 19 2 27 -5 8 -6 17 -9 21 -5 3 3 1
6 -6 6 -7 0 -10 4 -7 8 2 4 -4 8 -14 9 -11 1 -23 -3 -26 -9z"/>
<path d="M1310 1475 c-7 -9 -8 -15 -2 -15 5 0 12 7 16 15 3 8 4 15 2 15 -2 0
-9 -7 -16 -15z"/>
<path d="M1355 1470 c-4 -6 -10 -8 -15 -5 -4 3 -7 -3 -5 -12 2 -10 4 -25 4
-33 1 -13 2 -13 11 0 8 12 10 12 10 1 0 -8 3 -11 7 -7 5 4 -1 14 -11 22 -11 8
-15 14 -9 14 6 0 13 7 17 15 6 17 0 20 -9 5z"/>
<path d="M1293 1431 c1 -15 4 -17 14 -9 7 5 10 14 7 19 -10 16 -23 9 -21 -10z"/>
<path d="M2005 1380 c-7 -12 34 -70 49 -69 6 0 5 3 -1 6 -7 2 -13 9 -13 14 0
6 5 7 10 4 17 -11 11 10 -10 33 -23 25 -26 26 -35 12z m35 -32 c0 -6 -7 -5
-15 2 -8 7 -15 17 -15 22 0 6 7 5 15 -2 8 -7 15 -17 15 -22z"/>
<path d="M1883 1315 c-16 -18 -16 -18 6 -43 26 -30 37 -27 16 4 -9 14 -14 28
-11 31 3 3 15 -10 26 -28 18 -28 20 -30 15 -9 -4 14 -14 33 -24 42 -13 14 -18
14 -28 3z"/>
<path d="M1440 1313 c0 -5 46 -30 102 -57 168 -80 252 -180 253 -302 0 -49 -5
-68 -27 -102 -16 -23 -28 -45 -28 -49 0 -10 50 39 63 62 18 33 25 130 9 144
-15 15 -9 67 7 63 7 -1 10 2 7 7 -3 5 2 15 11 22 14 12 15 11 10 -11 -4 -14
-4 -19 -1 -12 3 6 13 12 22 12 15 0 15 2 2 10 -13 9 -12 12 4 25 11 8 17 17
14 21 -4 3 -16 -4 -27 -15 -12 -12 -29 -21 -38 -21 -9 0 -13 -3 -10 -7 8 -7
-11 -33 -25 -33 -5 0 -6 10 -3 23 4 13 3 17 -2 10 -6 -9 -12 -7 -22 8 -7 12
-8 18 -1 14 6 -3 9 -3 8 2 -3 8 5 13 23 13 5 0 8 -4 5 -8 -3 -5 8 -6 25 -4 34
5 34 5 12 23 -11 10 -14 10 -9 2 4 -8 1 -13 -8 -13 -19 0 -20 11 -3 30 6 8 2
6 -9 -3 -17 -14 -23 -15 -27 -5 -4 10 -6 9 -6 -2 -1 -13 -3 -13 -12 0 -9 13
-10 12 -5 -3 9 -27 -20 -18 -60 20 -36 34 -44 39 -151 91 -38 18 -76 37 -85
43 -10 5 -18 6 -18 2z"/>
<path d="M1745 1241 c-3 -5 -2 -12 3 -15 5 -3 9 1 9 9 0 17 -3 19 -12 6z"/>
<path d="M1815 1220 c-4 -6 -10 -8 -14 -6 -4 3 -13 0 -21 -6 -13 -8 -12 -9 1
-5 9 3 21 1 26 -4 6 -6 14 -5 22 5 7 9 8 16 2 20 -5 4 -12 2 -16 -4z"/>
<path d="M2132 1223 c-7 -3 -17 -14 -23 -25 -9 -16 -8 -19 2 -13 9 6 11 2 7
-13 -4 -13 0 -23 10 -27 16 -6 52 21 52 40 0 17 -33 43 -48 38z m19 -36 c-1
-12 -15 -9 -19 4 -3 6 1 10 8 8 6 -3 11 -8 11 -12z"/>
<path d="M856 1135 c-30 -22 -99 -69 -154 -105 -56 -36 -101 -69 -101 -73 -1
-5 12 -27 27 -50 15 -23 38 -63 51 -89 14 -29 31 -48 40 -47 11 0 12 2 3 6 -6
2 -9 10 -6 15 4 6 3 8 -3 5 -12 -8 -46 61 -37 75 4 6 2 8 -4 4 -6 -3 -13 -2
-16 3 -3 5 1 11 9 15 8 3 15 10 15 16 0 6 -4 9 -8 6 -4 -2 -19 5 -32 16 -16
13 -19 18 -7 14 9 -3 17 -1 17 5 0 6 9 8 20 4 12 -4 20 -2 20 5 0 8 -10 10
-25 7 -14 -2 -24 -3 -23 -1 12 12 79 53 106 65 17 7 32 17 32 21 0 4 31 28 69
53 46 30 81 45 103 45 18 1 47 7 63 14 28 12 26 12 -37 12 -63 -1 -72 -4 -122
-41z"/>
<path d="M2032 1108 c-7 -9 -8 -19 -2 -28 8 -13 10 -12 10 3 0 9 5 17 11 17 8
0 10 -29 7 -93 -5 -119 -35 -185 -114 -255 -61 -53 -69 -70 -21 -46 44 23 101
86 129 142 19 39 23 63 23 144 0 76 -4 101 -16 113 -13 13 -18 14 -27 3z"/>
<path d="M2036 1048 c-3 -7 -7 -32 -9 -56 -7 -56 -49 -141 -98 -198 -21 -25
-44 -54 -50 -66 -11 -21 -11 -21 20 1 80 57 140 166 149 268 4 56 -2 84 -12
51z"/>
<path d="M2175 1018 c-9 -23 -2 -83 10 -83 14 0 19 75 6 88 -7 7 -12 5 -16 -5z
m12 -50 c-2 -13 -4 -5 -4 17 -1 22 1 32 4 23 2 -10 2 -28 0 -40z"/>
<path d="M720 980 c0 -5 5 -10 10 -10 6 0 10 5 10 10 0 6 -4 10 -10 10 -5 0
-10 -4 -10 -10z"/>
<path d="M700 950 c0 -11 6 -20 13 -20 9 0 8 -3 -2 -9 -8 -5 -9 -11 -3 -15 5
-3 15 1 22 9 11 13 9 19 -8 36 l-22 20 0 -21z"/>
<path d="M895 904 c-19 -19 -16 -43 7 -57 33 -21 65 32 36 61 -16 16 -23 15
-43 -4z m35 -25 c0 -11 -27 -12 -34 -1 -2 4 4 9 15 9 10 1 19 -2 19 -8z"/>
<path d="M2145 890 c-3 -11 -3 -29 0 -41 7 -19 7 -20 21 -2 7 10 13 27 13 38
0 15 -3 13 -14 -10 l-15 -30 6 33 c6 35 -1 44 -11 12z"/>
<path d="M1102 858 c-19 -19 -14 -56 8 -68 16 -8 24 -8 35 4 26 26 13 76 -20
76 -6 0 -16 -5 -23 -12z m38 -34 c0 -17 -22 -14 -28 4 -2 7 3 12 12 12 9 0 16
-7 16 -16z"/>
<path d="M800 790 c-6 -4 -11 -10 -11 -14 3 -23 -1 -35 -15 -40 -14 -5 -15 -4
-4 9 17 21 -6 20 -27 -1 -15 -14 -14 -20 5 -60 12 -24 25 -44 29 -44 17 0 35
18 29 29 -10 15 7 14 23 -1 11 -11 13 -10 8 4 -5 15 -2 16 20 7 22 -8 24 -7
15 4 -7 8 -9 17 -5 21 4 3 7 15 8 25 1 16 -2 17 -16 8 -10 -6 -16 -13 -14 -16
3 -2 -10 -12 -28 -21 -23 -13 -36 -15 -45 -7 -11 8 -8 15 10 31 13 12 36 27
51 34 16 7 27 18 24 25 -4 14 -39 18 -57 7z m35 -18 c-3 -3 -11 0 -18 7 -9 10
-8 11 6 5 10 -3 15 -9 12 -12z"/>
<path d="M2095 760 c-26 -42 -27 -70 -3 -70 16 0 69 81 61 93 -3 5 -19 -11
-34 -37 -37 -59 -48 -60 -13 -1 34 58 24 71 -11 15z"/>
<path d="M1370 765 c0 -3 15 -14 33 -25 38 -23 29 -27 -13 -5 -17 9 -30 11
-30 5 0 -15 48 -43 65 -36 24 9 18 30 -14 49 -30 18 -41 21 -41 12z"/>
<path d="M1136 742 c-3 -5 1 -9 9 -9 8 0 12 4 9 9 -3 4 -7 8 -9 8 -2 0 -6 -4
-9 -8z"/>
<path d="M1772 700 c-18 -4 -70 -6 -116 -4 -151 6 -134 -51 18 -61 92 -6 144
5 176 40 l24 26 -44 -20 c-35 -16 -65 -20 -135 -20 -49 0 -99 4 -110 9 -12 5
16 6 66 3 84 -6 183 9 195 28 6 11 -27 10 -74 -1z"/>
<path d="M1223 684 c0 -7 4 -11 8 -8 10 6 62 -26 55 -34 -3 -3 -12 1 -21 8 -9
7 -18 10 -21 8 -9 -9 65 -50 77 -43 14 9 -35 61 -71 73 -20 8 -27 7 -27 -4z
m92 -54 c3 -5 2 -10 -4 -10 -5 0 -13 5 -16 10 -3 6 -2 10 4 10 5 0 13 -4 16
-10z"/>
<path d="M1980 663 c-46 -32 -64 -53 -54 -62 14 -15 61 -1 90 25 43 40 13 71
-36 37z m30 -15 c-14 -11 -24 -25 -22 -30 1 -5 -2 -7 -8 -3 -5 3 -19 1 -30 -5
-39 -21 -19 0 28 30 55 35 67 38 32 8z"/>
<path d="M808 594 c6 -12 9 -24 6 -26 -3 -3 2 -8 9 -11 19 -7 11 27 -11 45
-13 11 -14 10 -4 -8z"/>
<path d="M1461 576 c-10 -11 -8 -17 9 -29 40 -28 77 -5 45 27 -20 20 -39 20
-54 2z m49 -16 c13 -9 13 -10 0 -9 -8 0 -24 4 -35 9 -20 9 -20 9 0 9 11 0 27
-4 35 -9z"/>
<path d="M1795 570 c-19 -8 -19 -9 2 -9 12 -1 25 4 28 9 7 12 -2 12 -30 0z"/>
<path d="M1563 552 c-9 -22 12 -33 74 -39 45 -4 61 -2 71 10 11 13 10 17 -7
27 -32 17 -132 19 -138 2z m47 -12 c0 -13 -11 -13 -30 0 -12 8 -11 10 8 10 12
0 22 -4 22 -10z m99 -6 c2 -2 -17 -4 -42 -4 -26 0 -47 4 -47 9 0 8 79 3 89 -5z"/>
<path d="M1818 553 c-10 -2 -18 -9 -18 -14 0 -13 13 -11 36 6 19 14 14 17 -18
8z"/>
<path d="M1486 439 c3 -5 10 -7 15 -4 5 4 9 -3 9 -15 0 -12 -4 -19 -9 -16 -5
3 -14 -1 -21 -9 -9 -10 -9 -15 -1 -15 6 0 11 6 11 13 0 9 2 9 8 0 4 -7 12 -9
17 -5 13 9 19 52 8 53 -4 0 -16 2 -26 4 -9 2 -15 -1 -11 -6z"/>
<path d="M1540 430 c0 -5 5 -10 11 -10 5 0 7 5 4 10 -3 6 -8 10 -11 10 -2 0
-4 -4 -4 -10z"/>
<path d="M1630 419 c0 -5 5 -7 10 -4 6 3 10 8 10 11 0 2 -4 4 -10 4 -5 0 -10
-5 -10 -11z"/>
</g>
</svg>
